<mxfile host="app.diagrams.net" modified="2022-06-01T06:18:39.855Z" agent="5.0 (X11; Linux x86_64) AppleWebKit/537.36 (KHTML, like Gecko) Chrome/102.0.5005.61 Safari/537.36" etag="aqeFTUz67_w6hd-2SEP7" version="18.2.0" type="github">
  <diagram id="wAR2DOUIs-VTIgWboL5i" name="Page-1">
    <mxGraphModel dx="3412" dy="2556" grid="1" gridSize="10" guides="1" tooltips="1" connect="1" arrows="1" fold="1" page="1" pageScale="1" pageWidth="827" pageHeight="1169" math="0" shadow="0">
      <root>
        <mxCell id="0" />
        <mxCell id="1" parent="0" />
        <mxCell id="Me_EQh-9EzfCo79dDadO-35" style="edgeStyle=orthogonalEdgeStyle;curved=1;rounded=0;orthogonalLoop=1;jettySize=auto;html=1;entryX=0.5;entryY=1;entryDx=0;entryDy=0;fontFamily=Helvetica;fontSize=10;endArrow=none;endFill=0;strokeColor=#8F8F8F;strokeWidth=3;" edge="1" parent="1" source="SCkvb4-ZKAok-P7m5pzq-1" target="Me_EQh-9EzfCo79dDadO-30">
          <mxGeometry relative="1" as="geometry" />
        </mxCell>
        <mxCell id="SCkvb4-ZKAok-P7m5pzq-1" value="" style="shape=image;verticalLabelPosition=bottom;labelBackgroundColor=default;verticalAlign=top;aspect=fixed;imageAspect=0;image=https://devopsi.pl/wp-content/uploads/2021/02/Keycloak.png;" parent="1" vertex="1">
          <mxGeometry x="830" y="109.84999999999994" width="240" height="160.15" as="geometry" />
        </mxCell>
        <mxCell id="SCkvb4-ZKAok-P7m5pzq-13" style="edgeStyle=orthogonalEdgeStyle;rounded=0;orthogonalLoop=1;jettySize=auto;html=1;curved=1;strokeWidth=3;strokeColor=#8F8F8F;endArrow=none;endFill=0;" parent="1" source="SCkvb4-ZKAok-P7m5pzq-5" target="SCkvb4-ZKAok-P7m5pzq-10" edge="1">
          <mxGeometry relative="1" as="geometry" />
        </mxCell>
        <mxCell id="SCkvb4-ZKAok-P7m5pzq-5" value="" style="shape=image;verticalLabelPosition=bottom;labelBackgroundColor=default;verticalAlign=top;aspect=fixed;imageAspect=0;image=https://miro.medium.com/max/497/1*p8uXnCnpPIE6qLYP47CoUA.png;" parent="1" vertex="1">
          <mxGeometry x="150" y="307.42" width="287" height="125.31" as="geometry" />
        </mxCell>
        <mxCell id="SCkvb4-ZKAok-P7m5pzq-14" style="edgeStyle=orthogonalEdgeStyle;rounded=0;orthogonalLoop=1;jettySize=auto;html=1;entryX=0;entryY=0.75;entryDx=0;entryDy=0;curved=1;strokeWidth=3;strokeColor=#8F8F8F;endArrow=none;endFill=0;" parent="1" source="SCkvb4-ZKAok-P7m5pzq-6" target="SCkvb4-ZKAok-P7m5pzq-10" edge="1">
          <mxGeometry relative="1" as="geometry" />
        </mxCell>
        <mxCell id="SCkvb4-ZKAok-P7m5pzq-6" value="" style="shape=image;verticalLabelPosition=bottom;labelBackgroundColor=default;verticalAlign=top;aspect=fixed;imageAspect=0;image=data:image/png,iVBORw0KGgoAAAANSUhEUgAAAVYAAACTCAMAAADiI8ECAAAAzFBMVEX///8PJlwQZO4LJFsAAE4AUecAU+cAXe0AElMADVLs7vPv8fQABlAAIFnCxtKxtsSQlaiOsPaepLYAFlUAT+cAV+jj5uzZ2+B/oPSIkKcAAEwTK2A/THQAEVMAHVgAWe3p8P0AYunT1+FbZIOqwvaUsvNkku/I2Pnc5vtThu3j7Py3zPfx9v7R3/p9o/Ftl/CjvPVveZUqPWzB0/hGfuwmbuoYaOo4eOxdi+6lvvVfaoqpr8AucutJVnwmOWk2SHTJzNYAAD14gJkAAETdYEYvAAAPuElEQVR4nO2cCXeiShOGVaBxw0QBY1wIGHcBjbKYxBhv5v//pw8aemEzmZvlfjOn33Pundi0DTwW1VXVraUSExMTExMTExMTExMTExMTExMTExMTExMTExMTExMTExMTExMTExMTExMTExMTExMTExMTExPT/7XMxcSe+a5RMTx/2dvO9f/6gv4CmZODCwRBUCqe6xlAUQTBcKar//qy/mxZMxUAb7ndL+IG01rbR1EAzvo/va4/WnMHCJ5tZdpXj0sguJP/4Ir+Aq0OAbu1mX9w0QPCcf+zF/RXaArAcX7huN5TlVkBdKYC6UtgbLPN5sKy1pa1gDgtR3AvgWdKyzKAr6fazMnmaKhKKNHz7XDOagtqDnumAq2BaqebHEUAnjNrT7fT9sb3gCLMrJLlgXRHpiI9qiA1zW/dIKaaWsSVmtbUURRnbrpg88NX96dqD0AyKp0HCcFmkem32AhguXA+bq83jc9f3EV16998gpT2k1D7eZZNVnOgJiMnW1A3+WmVvlHFqQOmH7uI2/4333XnV/d7T5BSW7iLBJSKY0/0S311I+UBZsCL5vu5bWdyq7kHlhX1IwHsedcsfyvW8WtT/lGss7sKJfHuztnqhZ3TD3VPdaPOh7A04KcjVXOmGkbl3fi18dCUuG/F+laTyj+J1fQTVKHuxBxfCdUGTuL1I/AiZj2wnFuz1FH4DtWoLN+5hitN5srfibVVrpbLP4l14YkZqtBme3kmthArCTe6UtWIv6l64T9LBZUI1pvDZgKH2KqGerHy0n3iueCmvw9r/QGe4Aex7vOYRmC9nBRpmZp/Zui1pUDfMBUigHNPACoQPOhVA3v1LriBjiyH9/x9WINnAZ7g57A+Zh0A5QoyKdIeuMH/V23HaUf5qerGR1YKfPw3AgQ5V8SNtbI2ogJfbkSxXXgJnT5X/n2sV28v2gAFZI1z5+3lJGmydHp566TZXf2KT/AhrOfr+0G/3x/tsgNlNO68PT093T7fpNptcIFqpaKkQyM/pLYwgskJeDp8PyZ/VAPSW1EM/zZdNYoWJmJkpl5FLLy2zqicg/VpiLS7DV42XmPtOuHR1pCXJakMsXY7Lxpf1SQOSpJH/LCTCICvauUcrA+v+ARvuLHROQVDwU8hHOi+lbjS88t9pJdw/Mb1K1+VNU2Ta/zwiu6HQgBRgAoirJSfvUvGUnPBhwBt0+ypTohPxA+3JaoVQ40ShbWAUqueAEewgvi1EGs1B+tTTYrFP8D71eKXtevg1S0vwf7B3TWGtZGErDEeR6pJnfewvjXRCZpPuPFZHtFDcRr/RH9Arb4WKQywg74S7ik1X0jHNqLagy/NxXxi+2LCLdwlitSHMGS1otneV1foz0iLg+ct5zFM5JatGLAtHn8H6wMmMYJUSw2ErhpgjScgiPWGTzKNh+Kp28zD+sbjthfU1rjPjiWXqQe81Yxb+Xop3Vce4ItviwmskcyJQ4N1qUN6JXyk9wr0k3Yw5z8KCZdpItPdKCg804VD/Fa1qEaYg5Wiel/KYO3wqH+IdZSHNbjNV8w1B+ttHtWdnDOOpBELp7C+VNMdNTxQLtZA8yMBS09bj7BsslBhFBpaa1vIX1nJWmvJVnu5XfOwkpuu3qN7JljrPO5/ASvFK4v1mlAdEqoafi8XOGrM9ZTFqj3kfAJN5HiKsAYQCFcqNDoASMtR7dVqE8K1BZyW6qvVCvdcC7P4rw3KdFeAtvuLWK+zVAlWufOg4f4IK6eNmv1g9hjxFGT+uQhrBz/A2hDb9D0ixY1qp+Ggic1xdJvBWiZelYirvYu1tMVcyaxleiAiZAiqCiOBWcRZ3x6OhiiGxevYSl31Ef47iZIE+GEIBXlbGiu5aWJwBKv2NMD3AbHWpFF/8NBpdeuBbjonfOucVoD1GX9s2glTxY2a3Kk3So3uNY/YjZAbIFjxFdCqXb2LNQg1Y6wiTjwtIZ6gzKmzhBN7L7TW+VIFwDg6jnM0BMGLZ34w2y/mMwCwR30UChYKUlif+zlUCdbyiSM3BaesYTK+7FRRh+ZVLtYrQnVH5rUa+tiGyMF3BzFXGQVgSaycXBuNasRzlLX797EGoSYyVz1u2WYqfG1hbQboPDsuYJuW7Slu6BisIwzZqLWslVBQz05ivcKXrr1SwU0jHURpslyVg/6NdCheamG7e8jD2qphD3Ain8d1fBHcgAx0E7sFbtTIwVo73bbG49Y9HrzMxbZ/ESt2A9gL2CCd2a/BzFWNCZ2YmlMVwPBgbc9sernbdAtCrARW+qbpkDGJlatJD9eB8sveyPlKwxysZ3wCSaKsHD0D/Jga6C3m2oyzAgqr1LyOO92OcGMcNFzEqiNrFVEhMOsdV2JFzNig7ii5BauDmguBxto4Yw+QsNUUVk57zh8q0g0KwHbRawprfdzEVMsUVWTh2hM90Bi1xmZPTVkD8pC8Ih/MjaLGi1hLDuKKQn5PRca3mM+jOpaTu7K6UQ45rbaQX24hWAdXGr7pXbI+QGPltHHuQLhvPJVwcYROsHJXeJZJDoLsspbMVjU0UPQSY+XoLBhff5n/CNYemrTQZF4xIi5zX1UU1Qnzr2n+QtVGwc3mfh0natOCUKBDniIcLXJ8qsxBYeVG59xxiHZFWOkTJD4a5AO05If5IiWaMdYE/TOeAj+EdYpjgbhBibBuBfEwnS6j1VdPzGXlgDigtcNtA9HENVEKsGYSlgBIeiKisNY62TG6nYdXju9r5dcg1KoXYyV4E1QbiMzgqkUrxsqNxkmsPE2/+y+xKggrnHPmqgHNb14JC9gTIe95L+kgmp+Wgj+dbFSYdE2U7Ca4AqzSMN2JYJVeMyM8D/lRWMEKaElatYkrYhew7hKemxjcqEmphrxm83wBa+Oz1gpROSgxXYMDfJlbmtoqoS1vI+hr1TUvOIEsViqzyWDlz6lD410zmfTgB70Ya7n6Rg/xnNODVhwKfC1WI26AvtUk07wfTmFB6pVbF3BDj+yJOnwBi9vt38Ba7qdmJSrLSr39uZ+XSb6Htdyn3WPuJXwTVhthRfGmB8yw5IpnoxlcxlpU1DyujhA88kocRKxDk+6BdyIBWtKuAKt8nTxAcqbfw8oNKDfwHtba89dhRQGWiLynAyyqJBUGotD8FmI2HFgc1XCZRYk/kUmYuL4btyaUcgOJeiulG5mOZ0N9ECtJST+A9Qt9q4myV7wMZYPHoFnwSIfoD92JKwFIui2obc8hAYGvWh/IshJKRUBFWF9wTq415cHudSA1m7gUdRFrmW/lXEKQE+eo/3VOYI2TV5SybmG5dYZss0eMdCoqbjuuC+j7nqj4Vsn3woffmMMtQ+ECjfpeTQDeFpnxB3SnAqxjXHvl71vdcA2m223dDi5g1TicFJXJJaDgQXq7zVX3y7D6mVKLBcKYYFVRwx0EASuD+Eq9LQpRFcsTFcEPP4iDoYcGrrp+BYR/7pX3KlghtKcuTrQSbqAAK8qOylV6je5C3Cq/1Ae4QvaA3vAcY+W4i2u/X4B1ioyVFAZNDy6cWB4QXA8ANzmxz+3l0fNcf7aN2g8VPfj/2q+IHtzIYRdkA3SWVX0JXmIIsUeLrj0fK0JUSxQJirGGiwHPOAXFbgDxQll9gT6PdZ1Txi4dRFj0N21XAMdoo8B26TtTbLWmSQx4GS8r6PGigYsL2ilRjg0WWHfoKaWjgXysdVS60xIjFmKNFgOG+ASoSIYTpWZiYTqtT2OdkIVtatHlUYUWSKT7QBVV4OXZoZ/EaCnvr2VFj+CYpDzUAn4uVrSQpd0nRizCGldIyGItdgM7FBUnB0rpk1hNagvhHZVE6YaYDKV8MFuYK5v2sngML7nJzQb5qWvOWtYbNl+SFORjHcfAUjlCobXGhSdSIkVJAfbRfNpcb6k47DNYzfmG3oSRWNg7VFR6Y9taWMbIsgmslVrrNopWCLNYG3hSIW7gsrVyJ3rAcRx0FWJtnEh+G7kBqgqV4Hp+rdXI0s/vYw28oqkv5uv20kvsbEkWqOagQtsgWrdeqdm6ta0k9gVM80sHobIL2iRzwtFAPtZGNXlDUGNU/y/ESp0AuQFSi24+4Jpk6yUstsi7zBLhx7AihOLdnZhsSm0WCqIuum49EyLbNSt+BpZrJF9e2IOV3X4xxGvWqLBSEAkgs5NwRapxzRNTLMJausdZRBwNENCc1n+5vmq1Og8aH51Uk8+fwZoVeEwh2ANDJD7SjnddWmqmOrhN7oqbKhd2DGax3uArRUlBAdZb5BO13VXw5vr49kR2ClzASmqknBS1DKklVKlaazarGhko3lnxRVizGzFLy4rhYfdqCS6cq5xMEUsXExtadeHC/ta8PVhkUokreAVYu9g0pZosSXItUSIoxlq6Jm2RG+jS70xJiuOuL8Eqejlz90I0KoTrBriTxdrP7GxfuUnQh8ya7TtYyaRSrp0vYC3Ru3ZwmSUmhMbL3TFIOdNUwp+RPIgDki/AWrDJHX4TgMSpGyX8hYZlqqflJV3AFlz67kDuRkzi66JooAhrfZCptnLyddy52i3G2iJuII4Grn7lFm6pzYefxnoHekU/YOFUDKrCuphu2umtgBOQDLgs9eI3XXKxUqUpmBQUYS3dyJRThOjkcSO2W/kC1tITtnM5jnrPp+w2OU6WydLZZ7AG8UDFeSzmoBsV3wMbvfD4DFQSj/yFPZhQnX5cfoO7VJC6fBU1/zoH114bVaH66eWY7muTgiHxT3XsQhBWfAJ6Pbc+QieQf6FY9Tq5bTjcN/xAXdNHsQIxoXA3tru094XIoObAmPrBf/lHp4ZwTMS6plscskKdr7Hodbsr0hzaSyfW9TkzQGfEy+EWd0kb9Yfw8KkP9U90m+Pb3BO0kieAqncG/RpcbQw8tVbjnxJF39Y//Xhgerm9/g8fKz7f3m5Tmm4n64V56XGNtQbifloBYltPH1m1RVBJQtR9oTi2+iq1bl92p9PrPdrk1qhH+jdjda8eXgdctSqd7p/Tm5Hq9byBx1if+87uVlX3Zk8FYEl9Kdu0wr0DYso7rDzhh775/pVfQ250b25+9uuxUGugtkt62xMA8I7LWa+3WfqeCgRjqic77o0fsNW/R1YFOIGdBgbqht8mEgRQcQPTTXezldxVWaYihb/VEhHTF9Z+by1y4rG5L7hF1UCmAk0B8C8FTquZqmzYLwv9tsLfwXKKfilgMRMEn5nqv9LcEQS3nYW3mAYHjuzn8P615jNVUL0D+RVMcz7ZuKIAlgzqp2RODl4QCyiKEf4iZviDmIK3vPDjGUwflbl4tA++axjh77fa2zmbp5iYmJiYmJiYmJiYmJiYmJiYmJiYmJiYmJiYmJiYmJiYmJiYmJiYmJiYmJiYmJiYmJiYmJiYmP4k/Q+IFZmSYxJr6QAAAABJRU5ErkJggg==;" parent="1" vertex="1">
          <mxGeometry x="153.9" y="455" width="279.19" height="120" as="geometry" />
        </mxCell>
        <mxCell id="SCkvb4-ZKAok-P7m5pzq-12" style="edgeStyle=orthogonalEdgeStyle;rounded=0;orthogonalLoop=1;jettySize=auto;html=1;entryX=0;entryY=0.25;entryDx=0;entryDy=0;curved=1;strokeWidth=3;strokeColor=#8F8F8F;endArrow=none;endFill=0;" parent="1" source="SCkvb4-ZKAok-P7m5pzq-7" target="SCkvb4-ZKAok-P7m5pzq-10" edge="1">
          <mxGeometry relative="1" as="geometry" />
        </mxCell>
        <mxCell id="SCkvb4-ZKAok-P7m5pzq-7" value="" style="shape=image;verticalLabelPosition=bottom;labelBackgroundColor=default;verticalAlign=top;aspect=fixed;imageAspect=0;image=https://nordicapis.com/wp-content/uploads/tyk-logo.png;" parent="1" vertex="1">
          <mxGeometry x="153.9" y="140" width="276.59" height="130" as="geometry" />
        </mxCell>
        <mxCell id="SCkvb4-ZKAok-P7m5pzq-8" value="" style="dashed=0;outlineConnect=0;html=1;align=center;labelPosition=center;verticalLabelPosition=bottom;verticalAlign=top;shape=mxgraph.weblogos.aws_s3" parent="1" vertex="1">
          <mxGeometry x="70" y="341.2" width="61.6" height="57.6" as="geometry" />
        </mxCell>
        <mxCell id="SCkvb4-ZKAok-P7m5pzq-15" style="edgeStyle=orthogonalEdgeStyle;curved=1;rounded=0;orthogonalLoop=1;jettySize=auto;html=1;endArrow=none;endFill=0;strokeColor=#8F8F8F;strokeWidth=3;" parent="1" source="SCkvb4-ZKAok-P7m5pzq-10" target="SCkvb4-ZKAok-P7m5pzq-1" edge="1">
          <mxGeometry relative="1" as="geometry" />
        </mxCell>
        <mxCell id="SCkvb4-ZKAok-P7m5pzq-10" value="" style="strokeColor=#dddddd;shadow=1;strokeWidth=1;rounded=1;absoluteArcSize=1;arcSize=2;" parent="1" vertex="1">
          <mxGeometry x="510" y="348" width="100" height="44" as="geometry" />
        </mxCell>
        <mxCell id="SCkvb4-ZKAok-P7m5pzq-11" value="Gateway" style="sketch=0;dashed=0;connectable=0;html=1;fillColor=#757575;strokeColor=none;shape=mxgraph.gcp2.gateway;part=1;labelPosition=right;verticalLabelPosition=middle;align=left;verticalAlign=middle;spacingLeft=5;fontSize=12;" parent="SCkvb4-ZKAok-P7m5pzq-10" vertex="1">
          <mxGeometry y="0.5" width="32" height="32" relative="1" as="geometry">
            <mxPoint x="5" y="-16" as="offset" />
          </mxGeometry>
        </mxCell>
        <mxCell id="SCkvb4-ZKAok-P7m5pzq-23" style="edgeStyle=orthogonalEdgeStyle;curved=1;rounded=0;orthogonalLoop=1;jettySize=auto;html=1;endArrow=none;endFill=0;strokeColor=#8F8F8F;strokeWidth=3;exitX=1;exitY=0.5;exitDx=0;exitDy=0;" parent="1" source="Me_EQh-9EzfCo79dDadO-17" target="SCkvb4-ZKAok-P7m5pzq-8" edge="1">
          <mxGeometry relative="1" as="geometry">
            <mxPoint x="-41" y="370.0999999999999" as="sourcePoint" />
          </mxGeometry>
        </mxCell>
        <mxCell id="SCkvb4-ZKAok-P7m5pzq-22" style="edgeStyle=orthogonalEdgeStyle;curved=1;rounded=0;orthogonalLoop=1;jettySize=auto;html=1;entryX=1;entryY=0.5;entryDx=0;entryDy=0;endArrow=none;endFill=0;strokeColor=#8F8F8F;strokeWidth=3;" parent="1" source="SCkvb4-ZKAok-P7m5pzq-19" target="Me_EQh-9EzfCo79dDadO-17" edge="1">
          <mxGeometry relative="1" as="geometry">
            <mxPoint x="-41" y="370" as="targetPoint" />
          </mxGeometry>
        </mxCell>
        <mxCell id="SCkvb4-ZKAok-P7m5pzq-19" value="" style="dashed=0;outlineConnect=0;html=1;align=center;labelPosition=center;verticalLabelPosition=bottom;verticalAlign=top;shape=mxgraph.weblogos.aws_s3" parent="1" vertex="1">
          <mxGeometry x="70" y="176.2" width="61.6" height="57.6" as="geometry" />
        </mxCell>
        <mxCell id="SCkvb4-ZKAok-P7m5pzq-24" style="edgeStyle=orthogonalEdgeStyle;curved=1;rounded=0;orthogonalLoop=1;jettySize=auto;html=1;entryX=1;entryY=0.5;entryDx=0;entryDy=0;endArrow=none;endFill=0;strokeColor=#8F8F8F;strokeWidth=3;" parent="1" source="SCkvb4-ZKAok-P7m5pzq-20" target="Me_EQh-9EzfCo79dDadO-17" edge="1">
          <mxGeometry relative="1" as="geometry">
            <mxPoint x="-41" y="370" as="targetPoint" />
          </mxGeometry>
        </mxCell>
        <mxCell id="SCkvb4-ZKAok-P7m5pzq-20" value="" style="dashed=0;outlineConnect=0;html=1;align=center;labelPosition=center;verticalLabelPosition=bottom;verticalAlign=top;shape=mxgraph.weblogos.aws_s3" parent="1" vertex="1">
          <mxGeometry x="70" y="486.2" width="61.6" height="57.6" as="geometry" />
        </mxCell>
        <mxCell id="SCkvb4-ZKAok-P7m5pzq-25" value="" style="shape=step;perimeter=stepPerimeter;whiteSpace=wrap;html=1;fixedSize=1;size=10;direction=south;fillColor=#10739E;strokeColor=none;rounded=0;" parent="1" vertex="1">
          <mxGeometry x="-67.8" y="585" width="70" height="115" as="geometry" />
        </mxCell>
        <mxCell id="SCkvb4-ZKAok-P7m5pzq-26" value="" style="shape=step;perimeter=stepPerimeter;whiteSpace=wrap;html=1;fixedSize=1;size=10;direction=south;fillColor=#F2931E;strokeColor=none;rounded=0;" parent="1" vertex="1">
          <mxGeometry x="-67.8" y="699" width="70" height="125" as="geometry" />
        </mxCell>
        <mxCell id="SCkvb4-ZKAok-P7m5pzq-27" value="" style="shape=step;perimeter=stepPerimeter;whiteSpace=wrap;html=1;fixedSize=1;size=10;direction=south;fillColor=#AE4132;strokeColor=none;rounded=0;" parent="1" vertex="1">
          <mxGeometry x="-67.8" y="824" width="70" height="106" as="geometry" />
        </mxCell>
        <mxCell id="SCkvb4-ZKAok-P7m5pzq-30" value="&lt;font style=&quot;font-size: 10px;&quot;&gt;&lt;font style=&quot;font-size: 12px;&quot; color=&quot;#10739E&quot;&gt;&lt;b&gt;Tyk.io&lt;/b&gt;&lt;/font&gt;&lt;br&gt;&lt;br&gt;&lt;span style=&quot;color: rgb(40, 40, 40); text-align: start;&quot;&gt;&lt;font style=&quot;font-size: 10px;&quot;&gt;Tyk es una puerta de enlace de API de código abierto y una plataforma de gestión que ofrece aplicaciones locales, en la nube/multinube y empresariales.&amp;nbsp;&lt;/font&gt;&lt;/span&gt;&lt;span style=&quot;font-family: Roboto, &amp;quot;Helvetica Neue&amp;quot;, sans-serif; text-align: start;&quot; class=&quot;description has-overflow&quot;&gt;&lt;p style=&quot;margin-top: 0px; margin-bottom: 0px; display: inline;&quot;&gt;&lt;font style=&quot;vertical-align: inherit; font-size: 10px;&quot;&gt;&lt;font style=&quot;vertical-align: inherit; font-size: 10px;&quot;&gt;Ya se trate de microservicios, Smart Cities, IoT o datos abiertos, están en un&lt;/font&gt;&lt;/font&gt;&lt;/p&gt;&lt;/span&gt;&lt;span style=&quot;display: inline; font-family: Roboto, &amp;quot;Helvetica Neue&amp;quot;, sans-serif; text-align: start;&quot; class=&quot;overflow-description ng-star-inserted&quot;&gt;&lt;p style=&quot;margin-top: 0px; display: inline;&quot;&gt;&lt;font style=&quot;vertical-align: inherit; font-size: 10px;&quot;&gt;&lt;font style=&quot;vertical-align: inherit; font-size: 10px;&quot; class=&quot;&quot;&gt;tiene la misión de conectar todos los sistemas del mundo a través de una ingeniería eficiente y finamente diseñada.&lt;/font&gt;&lt;/font&gt;&lt;/p&gt;&lt;/span&gt;&lt;br&gt;&lt;/font&gt;" style="rounded=1;strokeColor=none;fillColor=#EEEEEE;align=center;arcSize=12;verticalAlign=top;whiteSpace=wrap;html=1;fontSize=12;" parent="1" vertex="1">
          <mxGeometry x="32.2" y="585" width="620" height="105" as="geometry" />
        </mxCell>
        <mxCell id="SCkvb4-ZKAok-P7m5pzq-31" value="&lt;p&gt;&lt;font style=&quot;font-size: 10px;&quot;&gt;&lt;font style=&quot;font-size: 12px&quot; color=&quot;#F2931E&quot;&gt;&lt;b&gt;Kong&lt;/b&gt;&lt;/font&gt;&lt;/font&gt;&lt;/p&gt;&lt;font style=&quot;font-size: 10px;&quot;&gt;&lt;br&gt;&lt;p style=&quot;box-sizing: inherit; overflow-wrap: break-word; margin: 0px 0px 10px; color: rgb(58, 58, 58); text-align: start;&quot;&gt;&lt;span style=&quot;box-sizing: inherit; font-weight: 700;&quot;&gt;Kong es un API Gateway open source escrito en Lua&lt;/span&gt;. Se ha c&lt;span style=&quot;box-sizing: inherit; font-weight: 700;&quot;&gt;reado sobre Nginx&lt;/span&gt;, y expone un API Rest que puede ser usada para gestionar nuestra infraestructura de una manera dinámica. Kong nos va a permitir securizar nuestra Arquitectura, siendo la primera barrera, delegando así la securización en Kong en lugar de bajarlo a los microservicios; obtener logs y métricas, tener un punto único para nuestras APIs&lt;/p&gt;&lt;/font&gt;" style="rounded=1;strokeColor=none;fillColor=#EEEEEE;align=center;arcSize=12;verticalAlign=top;whiteSpace=wrap;html=1;fontSize=12;" parent="1" vertex="1">
          <mxGeometry x="32.2" y="699" width="620" height="111" as="geometry" />
        </mxCell>
        <mxCell id="SCkvb4-ZKAok-P7m5pzq-32" value="&lt;p&gt;&lt;font style=&quot;font-size: 10px&quot;&gt;&lt;font style=&quot;font-size: 12px&quot; color=&quot;#AE4132&quot;&gt;&lt;b&gt;KrakenD&lt;/b&gt;&lt;/font&gt;&lt;/font&gt;&lt;/p&gt;&lt;font style=&quot;font-size: 10px;&quot; color=&quot;#050505&quot;&gt;KrakenD es el API gateway más rápido con agregación de microservicios (BFF) y conectividad de servicios (pub/sub, colas, gRPC, etc) diseñado para gran escala.&lt;/font&gt;" style="rounded=1;strokeColor=none;fillColor=#EEEEEE;align=center;arcSize=12;verticalAlign=top;whiteSpace=wrap;html=1;fontSize=12;" parent="1" vertex="1">
          <mxGeometry x="32.2" y="825" width="620" height="105" as="geometry" />
        </mxCell>
        <mxCell id="Me_EQh-9EzfCo79dDadO-5" value="" style="shape=step;perimeter=stepPerimeter;whiteSpace=wrap;html=1;fixedSize=1;size=10;direction=south;fillColor=#12AAB5;strokeColor=none;rounded=0;" vertex="1" parent="1">
          <mxGeometry x="670" y="20" width="70" height="100" as="geometry" />
        </mxCell>
        <mxCell id="Me_EQh-9EzfCo79dDadO-10" value="&lt;font style=&quot;font-size: 10px;&quot;&gt;&lt;font style=&quot;font-size: 12px&quot; color=&quot;#12AAB5&quot;&gt;&lt;b&gt;Label&lt;/b&gt;&lt;/font&gt;&lt;br&gt;&lt;br&gt;&lt;span style=&quot;box-sizing: border-box; margin: 0px; padding: 0px; border: 0px; font-variant-numeric: inherit; font-variant-east-asian: inherit; font-weight: 700; font-stretch: inherit; line-height: inherit; vertical-align: baseline; text-align: start;&quot;&gt;Keycloak es un producto&lt;/span&gt;&lt;span style=&quot;text-align: start;&quot;&gt;&amp;nbsp;de software de código abierto que&lt;/span&gt;&lt;span style=&quot;box-sizing: border-box; margin: 0px; padding: 0px; border: 0px; font-variant-numeric: inherit; font-variant-east-asian: inherit; font-weight: 700; font-stretch: inherit; line-height: inherit; vertical-align: baseline; text-align: start;&quot;&gt;&amp;nbsp;permite el inicio de sesión único (IdP) con Identity Management y Access Management&lt;/span&gt;&lt;span style=&quot;text-align: start;&quot;&gt;&amp;nbsp;para aplicaciones y servicios modernos. Este software está escrito en Java y&lt;/span&gt;&lt;span style=&quot;box-sizing: border-box; margin: 0px; padding: 0px; border: 0px; font-variant-numeric: inherit; font-variant-east-asian: inherit; font-weight: 700; font-stretch: inherit; line-height: inherit; vertical-align: baseline; text-align: start;&quot;&gt;&amp;nbsp;es compatible de forma predeterminada con los protocolos de federación de identidad&lt;/span&gt;&lt;span style=&quot;text-align: start;&quot;&gt;&amp;nbsp;SAML v2 y OpenID Connect (OIDC) / OAuth2. Está bajo licencia de Apache y es compatible con Red Hat.&lt;/span&gt;&lt;br&gt;&lt;/font&gt;" style="rounded=1;strokeColor=none;fillColor=#EEEEEE;align=center;arcSize=12;verticalAlign=top;whiteSpace=wrap;html=1;fontSize=12;" vertex="1" parent="1">
          <mxGeometry x="770" y="20" width="510" height="100" as="geometry" />
        </mxCell>
        <mxCell id="Me_EQh-9EzfCo79dDadO-11" value="" style="shape=image;verticalLabelPosition=bottom;labelBackgroundColor=default;verticalAlign=top;aspect=fixed;imageAspect=0;image=https://blog.ovhcloud.com/wp-content/uploads/2021/09/ovhcloud.jpg;" vertex="1" parent="1">
          <mxGeometry x="1370" y="-100" width="192" height="96" as="geometry" />
        </mxCell>
        <mxCell id="Me_EQh-9EzfCo79dDadO-12" value="" style="shape=image;verticalLabelPosition=bottom;labelBackgroundColor=default;verticalAlign=top;aspect=fixed;imageAspect=0;image=https://moss.sh/wp-content/uploads/upcloud_logo-1.png;" vertex="1" parent="1">
          <mxGeometry x="1590" y="-77" width="184.4" height="50" as="geometry" />
        </mxCell>
        <mxCell id="Me_EQh-9EzfCo79dDadO-16" value="" style="shape=image;verticalLabelPosition=bottom;labelBackgroundColor=default;verticalAlign=top;aspect=fixed;imageAspect=0;image=https://linube.com/blog/wp-content/uploads/ssl-lets-encrypt.png;" vertex="1" parent="1">
          <mxGeometry x="-285.46000000000004" y="240" width="232.84" height="60" as="geometry" />
        </mxCell>
        <mxCell id="Me_EQh-9EzfCo79dDadO-17" value="" style="shape=image;verticalLabelPosition=bottom;labelBackgroundColor=default;verticalAlign=top;aspect=fixed;imageAspect=0;image=https://matob.web.id/random/wp-content/uploads/sites/2/2021/12/Nginx-Logo.jpg;" vertex="1" parent="1">
          <mxGeometry x="-289.04" y="312.07" width="240" height="115.85" as="geometry" />
        </mxCell>
        <mxCell id="Me_EQh-9EzfCo79dDadO-19" style="edgeStyle=orthogonalEdgeStyle;rounded=0;orthogonalLoop=1;jettySize=auto;html=1;fontFamily=Helvetica;fontSize=10;" edge="1" parent="1" source="Me_EQh-9EzfCo79dDadO-18" target="Me_EQh-9EzfCo79dDadO-17">
          <mxGeometry relative="1" as="geometry" />
        </mxCell>
        <mxCell id="Me_EQh-9EzfCo79dDadO-18" value="Application Load Balancer" style="outlineConnect=0;dashed=0;verticalLabelPosition=bottom;verticalAlign=top;align=center;html=1;shape=mxgraph.aws3.application_load_balancer;fillColor=#F58536;gradientColor=none;fontFamily=Helvetica;fontSize=10;" vertex="1" parent="1">
          <mxGeometry x="-480" y="334.08" width="69" height="72" as="geometry" />
        </mxCell>
        <mxCell id="Me_EQh-9EzfCo79dDadO-20" value="Servidores dedicados" style="html=1;shape=mxgraph.infographic.bannerHalfFold;dx=40;dx2=20;notch=15;fillColor=#10739E;strokeColor=none;align=left;verticalAlign=top;fontColor=#ffffff;fontSize=14;fontStyle=1;spacingLeft=25;spacingTop=5;fontFamily=Helvetica;" vertex="1" parent="1">
          <mxGeometry x="1362" y="-120" width="458" height="140" as="geometry" />
        </mxCell>
        <mxCell id="Me_EQh-9EzfCo79dDadO-28" value="Persistencia de datos" style="html=1;shape=mxgraph.infographic.bannerHalfFold;dx=40;dx2=20;notch=15;fillColor=#23445D;strokeColor=none;align=left;verticalAlign=top;fontColor=#ffffff;fontSize=14;fontStyle=1;spacingLeft=25;spacingTop=5;fontFamily=Helvetica;" vertex="1" parent="1">
          <mxGeometry x="1430" y="-20" width="390" height="100" as="geometry" />
        </mxCell>
        <mxCell id="Me_EQh-9EzfCo79dDadO-30" value="" style="shape=image;verticalLabelPosition=bottom;labelBackgroundColor=default;verticalAlign=top;aspect=fixed;imageAspect=0;image=https://teorema-rd.com/storage/2020/05/images-1.png;" vertex="1" parent="1">
          <mxGeometry x="1518" y="30" width="90" height="90" as="geometry" />
        </mxCell>
        <mxCell id="Me_EQh-9EzfCo79dDadO-32" value="" style="shape=image;verticalLabelPosition=bottom;labelBackgroundColor=default;verticalAlign=top;aspect=fixed;imageAspect=0;image=https://angularfrontenders.com/wp-content/uploads/2021/01/MONGO-DB-logo-300x470-x.png;" vertex="1" parent="1">
          <mxGeometry x="1628" y="50.22" width="125" height="79.78" as="geometry" />
        </mxCell>
      </root>
    </mxGraphModel>
  </diagram>
</mxfile>
